<?xml version="1.0" encoding="UTF-8"?>
<svg width="114px" height="34px" viewBox="0 0 114 34" version="1.1" xmlns="http://www.w3.org/2000/svg" xmlns:xlink="http://www.w3.org/1999/xlink">
    <!-- Generator: Sketch 51.3 (57544) - http://www.bohemiancoding.com/sketch -->
    <title>logotype_seven</title>
    <desc>Created with Sketch.</desc>
    <defs>
        <linearGradient x1="50%" y1="20.5729476%" x2="50%" y2="100%" id="linearGradient-1">
            <stop stop-color="#37CAFF" offset="0%"></stop>
            <stop stop-color="#3770DB" offset="100%"></stop>
        </linearGradient>
        <linearGradient x1="103.571822%" y1="-12.5764319%" x2="-6.15099224%" y2="114.159233%" id="linearGradient-2">
            <stop stop-color="#D6EAFF" offset="0%"></stop>
            <stop stop-color="#D6EAFF" offset="34.005099%"></stop>
            <stop stop-color="#F4F9FF" offset="63.720981%"></stop>
            <stop stop-color="#FDFDFD" offset="100%"></stop>
        </linearGradient>
    </defs>
    <g id="Seven" stroke="none" stroke-width="1" fill="none" fill-rule="evenodd">
        <g id="logotype_seven">
            <path d="M41.8085938,21.2890625 L44.3984375,21.2890625 C44.5859375,22.9648438 46.2148438,24.0664062 48.4414062,24.0664062 C50.5742188,24.0664062 52.109375,22.9648438 52.109375,21.453125 C52.109375,20.140625 51.1835938,19.3554688 48.9921875,18.8164062 L46.8007812,18.2890625 C43.6953125,17.5390625 42.2539062,16.0859375 42.2539062,13.7304688 C42.2539062,10.8125 44.796875,8.80859375 48.40625,8.80859375 C51.9804688,8.80859375 54.4296875,10.8125 54.5117188,13.7304688 L51.9570312,13.7304688 C51.8046875,12.0429688 50.4101562,11.0234375 48.3710938,11.0234375 C46.3320312,11.0234375 44.9375,12.0546875 44.9375,13.5546875 C44.9375,14.75 45.828125,15.453125 48.0078125,15.9921875 L49.8710938,16.4492188 C53.3398438,17.2695312 54.78125,18.6640625 54.78125,21.1367188 C54.78125,24.3007812 52.2617188,26.28125 48.2539062,26.28125 C44.5039062,26.28125 41.9726562,24.3476562 41.8085938,21.2890625 Z M67.8710938,23.7265625 L67.8710938,26 L57.1367188,26 L57.1367188,9.08984375 L67.8710938,9.08984375 L67.8710938,11.3515625 L59.7617188,11.3515625 L59.7617188,16.296875 L67.4375,16.296875 L67.4375,18.4765625 L59.7617188,18.4765625 L59.7617188,23.7265625 L67.8710938,23.7265625 Z M78.21875,26 L75.3476562,26 L69.3125,9.08984375 L72.1601562,9.08984375 L76.765625,23.046875 L76.8359375,23.046875 L81.453125,9.08984375 L84.2539062,9.08984375 L78.21875,26 Z M96.8515625,23.7265625 L96.8515625,26 L86.1171875,26 L86.1171875,9.08984375 L96.8515625,9.08984375 L96.8515625,11.3515625 L88.7421875,11.3515625 L88.7421875,16.296875 L96.4179688,16.296875 L96.4179688,18.4765625 L88.7421875,18.4765625 L88.7421875,23.7265625 L96.8515625,23.7265625 Z M102.101562,26 L99.546875,26 L99.546875,9.08984375 L101.925781,9.08984375 L110.691406,21.5585938 L110.785156,21.5585938 L110.785156,9.08984375 L113.339844,9.08984375 L113.339844,26 L110.972656,26 L102.207031,13.5429688 L102.101562,13.5429688 L102.101562,26 Z" id="SEVEN" fill="#484848"></path>
            <g id="Group-6">
                <rect id="bg" fill="url(#linearGradient-1)" fill-rule="nonzero" x="7.10542736e-15" y="7.10542736e-15" width="33.6" height="33.6" rx="16.8"></rect>
                <g id="Group-2" transform="translate(8.536023, 6.070312)">
                    <polygon id="Path-37" fill="url(#linearGradient-2)" fill-rule="nonzero" transform="translate(9.587411, 10.729103) rotate(-5.000000) translate(-9.587411, -10.729103) " points="12.8690353 0.693699187 1.26263207 20.3498359 6.00233966 20.7645066 17.9121903 1.14349035"></polygon>
                    <polygon id="Combined-Shape-Copy" fill="#FFFFFF" transform="translate(8.521775, 2.711488) scale(1, -1) translate(-8.521775, -2.711488) " points="17.0435504 5.00237982 14.3518121 0.420596591 0 0.420596591 2.27547656 5.00237982"></polygon>
                    <polygon id="Combined-Shape-Copy" fill="#D6EAFF" transform="translate(13.424780, 3.248712) scale(1, -1) translate(-13.424780, -3.248712) " points="17.0580246 6.0768279 14.0708941 0.420596591 9.79153454 1.48306031"></polygon>
                </g>
            </g>
        </g>
    </g>
</svg>