<?xml version="1.0" encoding="UTF-8"?>
<svg width="84px" height="32px" viewBox="0 0 84 32" version="1.1" xmlns="http://www.w3.org/2000/svg" xmlns:xlink="http://www.w3.org/1999/xlink">
    <!-- Generator: Sketch 54.1 (76490) - https://sketchapp.com -->
    <title>Group 8</title>
    <desc>Created with Sketch.</desc>
    <g id="Page-1" stroke="none" stroke-width="1" fill="none" fill-rule="evenodd">
        <g id="Group-8" fill="#9EA0A5">
            <path d="M21.7046109,13.1929666 C23.6737344,13.1929666 24.1989006,15.0749343 24.1412889,16.8070108 L18.3964301,16.8070108 C18.8649836,14.8478882 20.1687411,13.1929666 21.7046109,13.1929666 L21.7046109,13.1929666 Z M18.0790658,18.9000499 L25.2861978,18.9000499 C25.5066544,18.9000499 25.7311072,18.8511058 25.9232574,18.6947566 C26.1866731,18.4806263 26.5040373,18.1210233 26.6808688,17.9194689 C26.8467107,17.7298106 26.9829143,17.5765204 26.9935708,17.3148056 C27.1141226,14.4067117 25.5449513,11 21.8135071,11 C17.7443848,11 15,15.343107 15,19.2226049 C15,23.1656621 16.9691235,26 21.0332506,26 C23.5685014,26 25.6788237,25.0632648 26.873019,24.0347594 L25.8616495,22.0773362 C24.8486148,22.9522115 23.1202618,23.8002357 21.5740686,23.8002357 C18.6538514,23.8002357 17.9345369,21.0131424 18.0790658,18.9000499 L18.0790658,18.9000499 Z" id="Fill-1"></path>
            <path d="M33.0824631,15.1693784 C32.6798197,15.7488002 32.2785634,16.7243357 32.1887403,17.795388 C32.0025047,20.006321 31.5655273,26 31.5655273,26 L28.4942006,26 C28.4942006,26 29.1174136,18.5960435 29.2994875,16.1263022 C29.4496551,14.0965703 28.700551,12.5191385 28,11.4954934 L30.962776,11.4954934 C31.3969789,12.0008194 31.7153482,13.10453 31.9123348,13.8149362 C32.5584371,12.2993094 34.026473,11 35.481677,11 C36.2744788,11 36.6965435,11.1629404 37,11.3848765 L36.756888,14.1137774 C36.2682363,13.9473253 35.9852414,13.8644504 35.3859582,13.8644504 C34.6611306,13.8644504 33.6023275,14.4221 33.0824631,15.1693784" id="Fill-2"></path>
            <path d="M40.848376,22.3748684 C41.0601197,19.5317655 41.6614589,11 41.6614589,11 L38.8584373,11 C38.8584373,11 38.2341808,19.4071604 38.021146,22.2088452 C37.8248957,24.7918568 39.0146628,26 40.7579976,26 C42.0475037,26 43.1978917,25.4036504 44,24.8262548 L43.093311,23.000702 C42.5355471,23.3917164 42.0161941,23.7062127 41.6153013,23.7062127 C41.2144086,23.7062127 40.7644532,23.5001755 40.848376,22.3748684" id="Fill-3"></path>
            <path d="M41.9950279,7.00017291 C41.9181791,8.10469439 40.962435,9 39.8603762,9 C38.7586529,9 37.9280818,8.10469439 38.0049306,7.00017291 C38.0817794,5.89565142 39.0375235,5 40.1395823,5 C41.2416411,5 42.0722123,5.89565142 41.9950279,7.00017291" id="Fill-4"></path>
            <path d="M51.9243649,21.2360543 C51.2839859,22.8525277 49.8636889,23.9849568 48.7269053,23.9849568 C47.0903055,23.9849568 46.4219505,22.047053 46.4219505,20.0266338 C46.4219505,17.1496424 47.5396284,13.212725 50.0813563,13.212725 C51.8223546,13.212725 52.565085,15.7938348 52.565085,17.4980025 C52.565085,18.9107768 52.4030286,20.0266338 51.9243649,21.2360543 L51.9243649,21.2360543 Z M53.0376076,11.4847349 C53.0376076,11.4847349 52.992573,12.1110234 52.9113741,13.209963 C52.4473809,12.2204686 51.2119987,11 49.5286584,11 C45.5134107,11 43.2852194,15.5739088 43.2852194,20.0266338 C43.2852194,23.7280888 45.1531335,26.2391122 47.8709059,26.2391122 C49.9056529,26.2391122 51.3416439,24.9927497 52.0679981,23.9866831 C52.0031755,24.7224168 51.944494,25.3559556 51.8943418,25.8327497 C51.779367,26.9361776 51.5896756,27.8835512 51.1205648,28.5174353 C50.5409143,29.3011591 49.4996588,29.7192602 48.3792515,29.7192602 C46.9975068,29.7192602 45.0265589,28.7494451 44.1142662,28.0254501 L43,30.0869544 C44.2340174,31.1392848 46.3346105,32 48.3243229,32 C50.0342746,32 51.9489292,31.5087053 53.1566765,30.3403699 C54.0959217,29.4320099 54.7216303,28.0675709 54.8420638,26.5039211 C55.1320596,22.7492972 56,11.4847349 56,11.4847349 L53.0376076,11.4847349 L53.0376076,11.4847349 Z" id="Fill-5"></path>
            <path d="M64.7045902,13.1929666 C66.6736099,13.1929666 67.1987484,15.0749343 67.1408066,16.8070108 L61.3962509,16.8070108 C61.8651127,14.8478882 63.1691345,13.1929666 64.7045902,13.1929666 L64.7045902,13.1929666 Z M61.0792364,18.9000499 L68.2859882,18.9000499 C68.5064332,18.9000499 68.7308741,18.8511058 68.9230142,18.6947566 C69.1857499,18.4806263 69.5037634,18.1210233 69.6805856,17.9194689 C69.8467518,17.7298106 69.9822822,17.5765204 69.9936041,17.3148056 C70.1138165,14.4067117 68.545061,11 64.8134807,11 C60.744573,11 58,15.343107 58,19.2226049 C58,23.1656621 59.9690197,26 64.0332654,26 C66.5683824,26 68.6785933,25.0632648 69.8727257,24.0347594 L68.8610765,22.0773362 C67.8484283,22.9522115 66.1201665,23.8002357 64.5737218,23.8002357 C61.6539917,23.8002357 60.9350481,21.0131424 61.0792364,18.9000499 L61.0792364,18.9000499 Z" id="Fill-6"></path>
            <path d="M78.7047585,13.1929666 C80.6734946,13.1929666 81.1989793,15.0749343 81.1410361,16.8070108 L75.3966692,16.8070108 C75.8655427,14.8478882 77.1689312,13.1929666 78.7047585,13.1929666 L78.7047585,13.1929666 Z M75.0793137,18.9000499 L82.2862464,18.9000499 C82.5066969,18.9000499 82.7311435,18.8511058 82.9232884,18.6947566 C83.1863638,18.4806263 83.5043852,18.1210233 83.6808788,17.9194689 C83.8467162,17.7298106 83.982916,17.5765204 83.9935722,17.3148056 C84.1141206,14.4067117 82.5446597,11 78.8136517,11 C74.7446419,11 72,15.343107 72,19.2226049 C72,23.1656621 73.9690691,26 78.0330838,26 C80.5685975,26 82.6791944,25.0632648 83.8733567,24.0347594 L82.8616821,22.0773362 C81.8486755,22.9522115 80.1203703,23.8002357 78.5742199,23.8002357 C75.6544164,23.8002357 74.9347888,21.0131424 75.0793137,18.9000499 L75.0793137,18.9000499 Z" id="Fill-8"></path>
            <path d="M18,7.47394943 C18,2.94487437 14.3937282,0.0502980339 8.4386415,0.000421404388 C6.13496956,-0.0193214281 3.36125895,0.658169456 1.86809358,1.29201829 L1.67546043,3.97842897 C3.54562163,3.30959723 6.15357813,2.54793953 8.32699008,2.57287784 C11.8254011,2.61340261 14.5832599,4.27353236 14.5832599,7.51239599 C14.5832599,10.9576935 12.1065972,13.3666654 8.39212008,13.8446497 L8.98587127,6.25266473 L5.81138722,6.25266473 L5.19971666,13.7459356 C3.72860589,13.4407876 2.33985527,12.788235 1.14821764,11.9815498 L0,14.1019993 C1.16717081,15.0690517 3.04835931,15.8604969 5.00156986,16.1708403 L4.19967837,26 L7.44136003,26 L8.20465597,16.2414989 C13.5756404,15.7261071 18,12.4086185 18,7.47394943" id="Fill-9"></path>
        </g>
    </g>
</svg>